<?xml version="1.0" standalone="no"?>
<!DOCTYPE svg PUBLIC "-//W3C//DTD SVG 20010904//EN"
 "http://www.w3.org/TR/2001/REC-SVG-20010904/DTD/svg10.dtd">
<svg version="1.0" xmlns="http://www.w3.org/2000/svg"
 width="500.000000pt" height="500.000000pt" viewBox="0 0 500.000000 500.000000"
 preserveAspectRatio="xMidYMid meet">

<g transform="translate(0.000000,500.000000) scale(0.100000,-0.100000)"
fill="#000000" stroke="none">
<path d="M1044 3286 c-16 -12 -19 -29 -22 -126 -4 -132 8 -163 61 -158 48 5
58 34 55 161 -3 94 -6 111 -22 123 -11 8 -27 14 -36 14 -9 0 -25 -6 -36 -14z"/>
<path d="M1807 3282 c-14 -15 -17 -40 -17 -131 0 -62 5 -121 10 -132 14 -25
61 -25 83 -1 24 26 25 227 1 260 -18 27 -55 29 -77 4z"/>
<path d="M762 3195 c-18 -8 -36 -23 -40 -34 -4 -11 -5 -252 -2 -535 l5 -515
23 -23 23 -23 394 -3 395 -3 0 26 0 25 -379 0 c-368 0 -379 1 -405 21 l-26 20
0 335 c0 321 1 335 20 354 20 20 33 20 665 20 l646 0 24 -25 c22 -21 25 -33
25 -90 0 -51 3 -65 15 -65 13 0 15 34 15 245 l0 245 -27 17 c-20 13 -52 19
-120 21 l-93 4 0 -94 c-1 -57 -5 -99 -13 -109 -31 -40 -90 -46 -119 -12 -8 10
-15 55 -18 112 l-5 96 -302 3 -301 2 -4 -95 c-3 -81 -6 -98 -25 -116 -31 -32
-80 -30 -110 5 -20 24 -23 37 -23 117 l0 89 -102 0 c-66 -1 -115 -6 -136 -15z"/>
<path d="M3490 2350 l0 -300 65 0 65 0 0 300 0 300 -65 0 -65 0 0 -300z"/>
<path d="M1632 2622 c-9 -7 -12 -70 -10 -283 l3 -274 120 1 c101 0 128 4 170
23 109 48 159 133 159 271 0 73 -4 92 -27 137 -29 57 -73 92 -146 118 -47 16
-246 21 -269 7z m255 -67 c80 -34 112 -92 113 -201 0 -151 -84 -234 -236 -234
l-74 0 0 224 0 225 23 5 c37 8 135 -3 174 -19z"/>
<path d="M3150 2610 c-88 -30 -132 -99 -116 -184 11 -55 44 -86 143 -132 72
-34 94 -48 99 -68 15 -61 -47 -89 -146 -67 -85 19 -82 20 -96 -32 -14 -56 -11
-59 83 -77 165 -29 292 44 293 170 0 79 -51 134 -162 175 -85 31 -112 79 -63
111 24 16 60 16 159 2 14 -2 21 7 32 42 7 25 10 48 6 51 -10 10 -108 29 -145
29 -18 -1 -57 -9 -87 -20z"/>
<path d="M4315 2575 c-5 -2 -29 -9 -52 -15 -43 -11 -43 -11 -43 -55 0 -41 -2
-45 -25 -45 -23 0 -25 -4 -25 -45 0 -41 2 -45 24 -45 24 0 24 -1 27 -117 3
-97 8 -124 25 -153 25 -44 79 -64 147 -55 l47 7 0 49 c0 49 0 49 -33 49 -51 0
-57 13 -57 122 l0 98 45 0 45 0 0 45 0 45 -45 0 -45 0 0 60 c0 59 -5 66 -35
55z"/>
<path d="M2277 2465 c-81 -28 -127 -100 -127 -200 0 -94 43 -168 113 -194 16
-6 53 -11 84 -11 69 0 131 33 163 86 27 43 38 145 20 198 -35 106 -146 160
-253 121z m150 -80 c32 -37 47 -95 38 -151 -5 -37 -16 -57 -45 -86 -42 -43
-80 -49 -131 -22 -58 29 -87 143 -55 217 36 85 136 107 193 42z"/>
<path d="M2755 2467 c-64 -21 -92 -45 -120 -100 -40 -81 -30 -191 23 -250 44
-49 137 -69 231 -51 27 6 32 11 29 33 -2 20 -8 25 -23 23 -69 -11 -122 -5
-154 17 -84 60 -80 200 8 258 37 25 107 31 141 13 17 -9 21 -6 26 16 4 14 3
29 -2 34 -16 16 -117 20 -159 7z"/>
<path d="M3815 2452 c-81 -38 -120 -112 -113 -217 5 -77 39 -135 98 -165 112
-57 243 -22 300 80 19 35 25 59 25 110 -1 82 -29 139 -87 177 -55 37 -162 44
-223 15z m130 -78 c43 -17 63 -154 29 -202 -52 -74 -144 -22 -144 81 0 92 51
145 115 121z"/>
</g>
</svg>
